<svg width="1200" height="960" viewBox="0 0 1200 960" fill="none" xmlns="http://www.w3.org/2000/svg" role="img" aria-label="Монтаж кондиционера">
  <defs>
    <linearGradient id="wall" x1="0" y1="0" x2="1200" y2="960" gradientUnits="userSpaceOnUse">
      <stop stop-color="#F8FBFF"/>
      <stop offset="1" stop-color="#DCEAF7"/>
    </linearGradient>
    <linearGradient id="blue" x1="220" y1="170" x2="950" y2="820" gradientUnits="userSpaceOnUse">
      <stop stop-color="#1E73E8"/>
      <stop offset="1" stop-color="#0EA5A8"/>
    </linearGradient>
    <filter id="shadow" x="-20%" y="-20%" width="140%" height="140%">
      <feDropShadow dx="0" dy="28" stdDeviation="26" flood-color="#102A43" flood-opacity=".18"/>
    </filter>
  </defs>
  <rect width="1200" height="960" fill="url(#wall)"/>
  <circle cx="1030" cy="160" r="190" fill="#1E73E8" opacity=".10"/>
  <circle cx="170" cy="820" r="240" fill="#FF6A2B" opacity=".08"/>
  <g filter="url(#shadow)">
    <rect x="220" y="168" width="760" height="178" rx="42" fill="white"/>
    <rect x="270" y="218" width="420" height="28" rx="14" fill="#DCEAF7"/>
    <rect x="270" y="272" width="600" height="20" rx="10" fill="#EAF2FA"/>
    <circle cx="900" cy="256" r="34" fill="url(#blue)"/>
    <path d="M888 256h24M900 244v24" stroke="white" stroke-width="10" stroke-linecap="round"/>
  </g>
  <g filter="url(#shadow)">
    <path d="M498 454c-42 24-70 70-70 122v162h92V579c0-18 10-34 26-43l96-55-46-80-98 53Z" fill="#314A62"/>
    <path d="M641 401c38-22 86-9 108 29l84 146-78 46-70-121-78 45-46-80 80-65Z" fill="#263B4F"/>
    <circle cx="642" cy="322" r="58" fill="#FFB181"/>
    <path d="M594 314c7-46 45-77 91-63 34 10 50 36 50 69-46 5-87-7-122-36-4 11-10 21-19 30Z" fill="#102A43"/>
    <rect x="742" y="612" width="210" height="92" rx="24" fill="url(#blue)"/>
    <path d="M790 658h114" stroke="white" stroke-width="18" stroke-linecap="round" opacity=".92"/>
    <path d="M515 730h132" stroke="#102A43" stroke-width="42" stroke-linecap="round"/>
    <path d="M713 614l-82 92" stroke="#314A62" stroke-width="38" stroke-linecap="round"/>
  </g>
  <g opacity=".9">
    <rect x="118" y="628" width="190" height="112" rx="28" fill="#FFFFFF" filter="url(#shadow)"/>
    <path d="M168 684h86M168 710h54" stroke="#1E73E8" stroke-width="16" stroke-linecap="round"/>
    <circle cx="260" cy="675" r="20" fill="#FF6A2B"/>
  </g>
</svg>
